<svg width="1536" height="864" viewBox="0 0 1536 864" fill="none" xmlns="http://www.w3.org/2000/svg" role="img" aria-labelledby="title desc">
  <title id="title">ChatterCatcher hero illustration</title>
  <desc id="desc">Local-first family chat knowledge bot with message capture, local storage, RAG retrieval, and cited answers.</desc>
  <rect width="1536" height="864" fill="#F6F2EA"/>
  <rect x="88" y="92" width="1360" height="680" rx="40" fill="#FFFDF8" stroke="#D8D1C5" stroke-width="2"/>
  <circle cx="1280" cy="182" r="130" fill="#D9EEE8"/>
  <circle cx="1254" cy="196" r="76" fill="#2F8F83" opacity="0.16"/>
  <path d="M164 632C252 544 356 526 476 578C588 626 694 642 814 588C978 514 1104 534 1240 620C1304 660 1374 666 1448 636V772H164V632Z" fill="#EAE3D5"/>

  <g transform="translate(164 154)">
    <text x="0" y="0" fill="#14202B" font-family="Inter, ui-sans-serif, system-ui, -apple-system, BlinkMacSystemFont, 'Segoe UI', sans-serif" font-size="78" font-weight="800">ChatterCatcher</text>
    <text x="4" y="58" fill="#56657A" font-family="Inter, ui-sans-serif, system-ui, -apple-system, BlinkMacSystemFont, 'Segoe UI', sans-serif" font-size="30" font-weight="500">Local-first RAG memory for Feishu family groups</text>
    <text x="4" y="112" fill="#14202B" font-family="Inter, ui-sans-serif, system-ui, -apple-system, BlinkMacSystemFont, 'Segoe UI', sans-serif" font-size="26">Capture family chat facts, retrieve evidence, answer with citations.</text>

    <g transform="translate(0 170)">
      <rect width="412" height="324" rx="24" fill="#17212D"/>
      <rect x="26" y="28" width="172" height="30" rx="15" fill="#2F8F83"/>
      <rect x="26" y="80" width="312" height="50" rx="18" fill="#263545"/>
      <rect x="26" y="150" width="260" height="50" rx="18" fill="#263545"/>
      <rect x="126" y="220" width="260" height="50" rx="18" fill="#2F6FED"/>
      <text x="48" y="114" fill="#E9F0F2" font-family="Inter, ui-sans-serif, system-ui, sans-serif" font-size="21">编程课改到后天 13:40</text>
      <text x="148" y="254" fill="#FFFFFF" font-family="Inter, ui-sans-serif, system-ui, sans-serif" font-size="21">@小陈 最近一次编程课?</text>
      <circle cx="360" cy="54" r="18" fill="#F7C948"/>
    </g>

    <g transform="translate(468 192)">
      <path d="M0 118H96" stroke="#2F8F83" stroke-width="8" stroke-linecap="round"/>
      <path d="M68 88L104 118L68 148" stroke="#2F8F83" stroke-width="8" stroke-linecap="round" stroke-linejoin="round"/>
    </g>

    <g transform="translate(590 152)">
      <rect width="268" height="240" rx="24" fill="#ECF7F4" stroke="#9CCFC5" stroke-width="2"/>
      <rect x="42" y="48" width="184" height="52" rx="16" fill="#2F8F83"/>
      <rect x="42" y="120" width="184" height="24" rx="12" fill="#B9DED6"/>
      <rect x="42" y="160" width="140" height="24" rx="12" fill="#B9DED6"/>
      <text x="54" y="82" fill="#FFFFFF" font-family="Inter, ui-sans-serif, system-ui, sans-serif" font-size="24" font-weight="700">SQLite</text>
      <text x="54" y="205" fill="#2F5F59" font-family="Inter, ui-sans-serif, system-ui, sans-serif" font-size="24" font-weight="700">LanceDB</text>
    </g>

    <g transform="translate(908 192)">
      <path d="M0 118H96" stroke="#2F8F83" stroke-width="8" stroke-linecap="round"/>
      <path d="M68 88L104 118L68 148" stroke="#2F8F83" stroke-width="8" stroke-linecap="round" stroke-linejoin="round"/>
    </g>

    <g transform="translate(1030 132)">
      <rect width="308" height="300" rx="28" fill="#FFFFFF" stroke="#D8D1C5" stroke-width="2"/>
      <rect x="34" y="34" width="118" height="34" rx="17" fill="#14202B"/>
      <text x="50" y="58" fill="#FFFFFF" font-family="Inter, ui-sans-serif, system-ui, sans-serif" font-size="18" font-weight="700">Answer</text>
      <text x="34" y="112" fill="#14202B" font-family="Inter, ui-sans-serif, system-ui, sans-serif" font-size="25" font-weight="800">后天 13:40</text>
      <rect x="34" y="146" width="236" height="44" rx="14" fill="#F2EEE5"/>
      <rect x="34" y="206" width="210" height="44" rx="14" fill="#F2EEE5"/>
      <text x="52" y="174" fill="#56657A" font-family="Inter, ui-sans-serif, system-ui, sans-serif" font-size="18">[S1] 群成员 13:36</text>
      <text x="52" y="234" fill="#56657A" font-family="Inter, ui-sans-serif, system-ui, sans-serif" font-size="18">可追溯引用</text>
      <circle cx="250" cy="62" r="28" fill="#2F8F83"/>
      <path d="M238 62L248 72L264 52" stroke="#FFFFFF" stroke-width="6" stroke-linecap="round" stroke-linejoin="round"/>
    </g>
  </g>
</svg>
